<svg xmlns="http://www.w3.org/2000/svg" width="16" height="16" fill="none" viewBox="0 0 16 16" class="" role="img" aria-label="Visibility Off Icon" aria-hidden="true"><path fill="currentColor" fill-rule="evenodd" d="M14.601 1.266a1.03 1.03 0 0 0-1.433.049L1.704 13.486a.987.987 0 0 0 .062 1.407 1.03 1.03 0 0 0 1.433-.049l1.793-1.904A7.348 7.348 0 0 0 8 13.587c3.934 0 6.473-3.133 7.455-4.59l.043-.063c.215-.316.502-.737.502-1.347s-.287-1.03-.502-1.346l-.043-.065a12.85 12.85 0 0 0-1.949-2.275l1.157-1.228a.987.987 0 0 0-.062-1.407Zm-2.93 4.585-.764.81c.096.292.148.603.148.926 0 1.657-1.368 3-3.055 3-.246 0-.485-.028-.714-.082l-.763.81c.458.176.956.272 1.477.272 2.25 0 4.073-1.79 4.073-4 0-.622-.145-1.211-.403-1.736ZM8 1.587c.919 0 1.762.171 2.526.452L8.98 3.68A5.13 5.13 0 0 0 8 3.587c-2.25 0-4.073 1.79-4.073 4 0 .435.07.853.201 1.245l-1.985 2.107A13.06 13.06 0 0 1 .545 8.998l-.043-.064C.287 8.618 0 8.197 0 7.587s.287-1.03.502-1.346l.043-.065C1.527 4.72 4.066 1.587 8 1.587Zm0 2c.327 0 .654.034.978.095l-.016.017A4.155 4.155 0 0 0 8 3.587Zm0 1c.041 0 .083 0 .124.002L4.966 7.942a2.978 2.978 0 0 1-.02-.355c0-1.657 1.367-3 3.054-3Z" clip-rule="evenodd"></path></svg>