<svg xmlns="http://www.w3.org/2000/svg" width="16" height="16" fill="none" viewBox="0 0 16 16" class="" role="img" aria-label="Visibility Icon" aria-hidden="true"><path fill="currentColor" fill-rule="evenodd" d="M8 2.008c3.934 0 6.473 3.129 7.455 4.583l.043.064C15.713 6.97 16 7.391 16 8s-.287 1.03-.502 1.345l-.043.064c-.982 1.454-3.521 4.583-7.455 4.583S1.527 10.863.545 9.41l-.043-.064C.287 9.03 0 8.609 0 8s.287-1.03.502-1.345l.043-.064C1.527 5.137 4.066 2.008 8 2.008ZM9.13 4.13A5.147 5.147 0 0 0 8 4.005C5.75 4.005 3.927 5.794 3.927 8c0 2.206 1.824 3.995 4.073 3.995 2.25 0 4.073-1.789 4.073-3.995 0-2.206-1.824-3.995-4.073-3.995.378 0 .756.045 1.13.126ZM8 10.996c1.687 0 3.055-1.341 3.055-2.996S9.687 5.004 8 5.004 4.945 6.345 4.945 8 6.313 10.996 8 10.996Z" clip-rule="evenodd"></path></svg>